<?xml version="1.0" encoding="UTF-8" standalone="no"?>
<!-- Created with Inkscape (http://www.inkscape.org/) -->
<svg
   xmlns:dc="http://purl.org/dc/elements/1.1/"
   xmlns:cc="http://web.resource.org/cc/"
   xmlns:rdf="http://www.w3.org/1999/02/22-rdf-syntax-ns#"
   xmlns:svg="http://www.w3.org/2000/svg"
   xmlns="http://www.w3.org/2000/svg"
   xmlns:sodipodi="http://inkscape.sourceforge.net/DTD/sodipodi-0.dtd"
   xmlns:inkscape="http://www.inkscape.org/namespaces/inkscape"
   id="svg2"
   sodipodi:version="0.32"
   inkscape:version="0.43"
   width="420pt"
   height="480pt"
   version="1.0"
   sodipodi:docbase="C:\Documents and Settings\Daval\Mes documents\romary\Wikipedia"
   sodipodi:docname="courbe_niveau.svg">
  <metadata
     id="metadata7">
    <rdf:RDF>
      <cc:Work
         rdf:about="">
        <dc:format>image/svg+xml</dc:format>
        <dc:type
           rdf:resource="http://purl.org/dc/dcmitype/StillImage" />
      </cc:Work>
    </rdf:RDF>
  </metadata>
  <defs
     id="defs5" />
  <sodipodi:namedview
     inkscape:window-height="712"
     inkscape:window-width="1024"
     inkscape:pageshadow="2"
     inkscape:pageopacity="1"
     borderopacity="1.0"
     bordercolor="#666666"
     pagecolor="#ffffff"
     id="base"
     inkscape:zoom="0.61658854"
     inkscape:cx="304.33109"
     inkscape:cy="326.27345"
     inkscape:window-x="-4"
     inkscape:window-y="-4"
     inkscape:current-layer="svg2" />
  <rect
     style="opacity:1;fill:#d39f4d;fill-opacity:1;fill-rule:nonzero;stroke:#000000;stroke-width:1;stroke-linecap:round;stroke-miterlimit:4;stroke-dasharray:none;stroke-dashoffset:0;stroke-opacity:1"
     id="rect3054"
     width="352.47824"
     height="21.840055"
     x="64.010979"
     y="181.34138" />
  <path
     style="fill:none;fill-opacity:0.75;fill-rule:evenodd;stroke:#000000;stroke-width:1;stroke-linecap:butt;stroke-linejoin:miter;stroke-miterlimit:4;stroke-dasharray:none;stroke-opacity:1"
     d="M 57.09861,205.75322 C 151.69998,-178.38262 185.02985,137.99581 496.93204,205.75322"
     id="path3056"
     sodipodi:nodetypes="cc" />
  <rect
     style="opacity:1;fill:#d39f4d;fill-opacity:1;fill-rule:nonzero;stroke:#000000;stroke-width:1;stroke-linecap:round;stroke-miterlimit:4;stroke-dasharray:none;stroke-dashoffset:0;stroke-opacity:1"
     id="rect3058"
     width="297.66879"
     height="21.840055"
     x="69.29393"
     y="158.96411" />
  <rect
     style="opacity:1;fill:#d39f4d;fill-opacity:1;fill-rule:nonzero;stroke:#000000;stroke-width:1;stroke-linecap:round;stroke-miterlimit:4;stroke-dasharray:none;stroke-dashoffset:0;stroke-opacity:1"
     id="rect3060"
     width="253.26128"
     height="21.840055"
     x="77.046951"
     y="137.04268" />
  <rect
     style="opacity:1;fill:#d39f4d;fill-opacity:1;fill-rule:nonzero;stroke:#000000;stroke-width:1;stroke-linecap:round;stroke-miterlimit:4;stroke-dasharray:none;stroke-dashoffset:0;stroke-opacity:1"
     id="rect3062"
     width="212.76312"
     height="21.840055"
     x="84.178299"
     y="114.9606" />
  <rect
     style="opacity:1;fill:#d39f4d;fill-opacity:1;fill-rule:nonzero;stroke:#000000;stroke-width:1;stroke-linecap:round;stroke-miterlimit:4;stroke-dasharray:none;stroke-dashoffset:0;stroke-opacity:1"
     id="rect3064"
     width="176.55301"
     height="21.840055"
     x="91.31218"
     y="92.541214" />
  <rect
     style="opacity:1;fill:#d39f4d;fill-opacity:1;fill-rule:nonzero;stroke:#000000;stroke-width:1;stroke-linecap:round;stroke-miterlimit:4;stroke-dasharray:none;stroke-dashoffset:0;stroke-opacity:1"
     id="rect3066"
     width="139.64398"
     height="21.840055"
     x="100.35425"
     y="70.459137" />
  <rect
     style="opacity:1;fill:#d39f4d;fill-opacity:1;fill-rule:nonzero;stroke:#000000;stroke-width:1;stroke-linecap:round;stroke-miterlimit:4;stroke-dasharray:none;stroke-dashoffset:0;stroke-opacity:1"
     id="rect3068"
     width="99.875031"
     height="21.840055"
     x="111.86216"
     y="48.714359" />
  <rect
     style="opacity:1;fill:#d39f4d;fill-opacity:1;fill-rule:nonzero;stroke:#000000;stroke-width:1;stroke-linecap:round;stroke-miterlimit:4;stroke-dasharray:none;stroke-dashoffset:0;stroke-opacity:1"
     id="rect3070"
     width="47.695526"
     height="21.840055"
     x="131.44243"
     y="26.632275" />
  <path
     style="fill:none;fill-opacity:0.75;fill-rule:evenodd;stroke:#000000;stroke-width:1;stroke-linecap:butt;stroke-linejoin:miter;stroke-miterlimit:4;stroke-dasharray:none;stroke-opacity:1"
     d="M 6.504275,415.55106 L 463.87707,414.87647"
     id="path3072" />
  <path
     style="fill:none;fill-opacity:0.75;fill-rule:evenodd;stroke:#000000;stroke-width:1;stroke-linecap:butt;stroke-linejoin:miter;stroke-miterlimit:4;stroke-dasharray:none;stroke-opacity:1"
     d="M 64.51911,203.05485 L 64.51911,414.20188"
     id="path3074" />
  <path
     style="fill:none;fill-opacity:0.75;fill-rule:evenodd;stroke:#000000;stroke-width:1;stroke-linecap:butt;stroke-linejoin:miter;stroke-miterlimit:4;stroke-dasharray:none;stroke-opacity:1"
     d="M 415.9811,203.05485 L 415.9811,412.8527"
     id="path3076" />
  <path
     style="fill:none;fill-opacity:0.75;fill-rule:evenodd;stroke:#000000;stroke-width:1;stroke-linecap:butt;stroke-linejoin:miter;stroke-miterlimit:4;stroke-dasharray:none;stroke-opacity:1"
     d="M 69.4099,182.02678 L 69.4099,417.45909"
     id="path3078" />
  <path
     style="fill:none;fill-opacity:0.75;fill-rule:evenodd;stroke:#000000;stroke-width:1;stroke-linecap:butt;stroke-linejoin:miter;stroke-miterlimit:4;stroke-dasharray:none;stroke-opacity:1"
     d="M 366.65411,180.59576 L 366.65411,414.0043"
     id="path3080" />
  <path
     style="fill:none;fill-opacity:0.75;fill-rule:evenodd;stroke:#000000;stroke-width:1;stroke-linecap:butt;stroke-linejoin:miter;stroke-miterlimit:4;stroke-dasharray:none;stroke-opacity:1"
     d="M 77.33635,157.85725 L 78.01094,414.87647"
     id="path3082" />
  <path
     style="fill:none;fill-opacity:0.75;fill-rule:evenodd;stroke:#000000;stroke-width:1;stroke-linecap:butt;stroke-linejoin:miter;stroke-miterlimit:4;stroke-dasharray:none;stroke-opacity:1"
     d="M 330.0286,159.09068 L 330.0286,417.45909"
     id="path3084" />
  <path
     style="fill:none;fill-opacity:0.75;fill-rule:evenodd;stroke:#000000;stroke-width:1;stroke-linecap:butt;stroke-linejoin:miter;stroke-miterlimit:4;stroke-dasharray:none;stroke-opacity:1"
     d="M 84.082259,137.30619 L 84.082259,417.9361"
     id="path3086" />
  <path
     style="fill:none;fill-opacity:0.75;fill-rule:evenodd;stroke:#000000;stroke-width:1;stroke-linecap:butt;stroke-linejoin:miter;stroke-miterlimit:4;stroke-dasharray:none;stroke-opacity:1"
     d="M 296.49663,136.15459 L 296.49663,415.43532"
     id="path3088" />
  <path
     style="fill:none;fill-opacity:0.75;fill-rule:evenodd;stroke:#000000;stroke-width:1;stroke-linecap:butt;stroke-linejoin:miter;stroke-miterlimit:4;stroke-dasharray:none;stroke-opacity:1"
     d="M 91.276249,115.21333 L 91.276249,417.43016"
     id="path3090" />
  <path
     style="fill:none;fill-opacity:0.75;fill-rule:evenodd;stroke:#000000;stroke-width:1;stroke-linecap:butt;stroke-linejoin:miter;stroke-miterlimit:4;stroke-dasharray:none;stroke-opacity:1"
     d="M 267.29162,114.48583 L 267.29162,414.0043"
     id="path3092" />
  <path
     style="fill:none;fill-opacity:0.75;fill-rule:evenodd;stroke:#000000;stroke-width:1;stroke-linecap:butt;stroke-linejoin:miter;stroke-miterlimit:4;stroke-dasharray:none;stroke-opacity:1"
     d="M 100.55187,92.701336 L 100.55187,415.1559"
     id="path3094" />
  <path
     style="fill:none;fill-opacity:0.75;fill-rule:evenodd;stroke:#000000;stroke-width:1;stroke-linecap:butt;stroke-linejoin:miter;stroke-miterlimit:4;stroke-dasharray:none;stroke-opacity:1"
     d="M 239.63338,92.783176 L 239.63338,417.26151"
     id="path3096" />
  <path
     style="fill:none;fill-opacity:0.75;fill-rule:evenodd;stroke:#000000;stroke-width:1;stroke-linecap:butt;stroke-linejoin:miter;stroke-miterlimit:4;stroke-dasharray:none;stroke-opacity:1"
     d="M 111.93808,70.242236 L 111.93808,416.30749"
     id="path3098" />
  <path
     style="fill:none;fill-opacity:0.75;fill-rule:evenodd;stroke:#000000;stroke-width:1;stroke-linecap:butt;stroke-linejoin:miter;stroke-miterlimit:4;stroke-dasharray:none;stroke-opacity:1"
     d="M 211.02114,71.393846 L 211.02114,416.10991"
     id="path3100" />
  <path
     style="fill:none;fill-opacity:0.75;fill-rule:evenodd;stroke:#000000;stroke-width:1;stroke-linecap:butt;stroke-linejoin:miter;stroke-miterlimit:4;stroke-dasharray:none;stroke-opacity:1"
     d="M 131.58307,48.178326 L 131.58307,415.1559"
     id="path3102" />
  <path
     style="fill:none;fill-opacity:0.75;fill-rule:evenodd;stroke:#000000;stroke-width:1;stroke-linecap:butt;stroke-linejoin:miter;stroke-miterlimit:4;stroke-dasharray:none;stroke-opacity:1"
     d="M 178.92018,49.527506 L 178.92018,415.83049"
     id="path3104" />
  <path
     style="fill:none;fill-opacity:0.75;fill-rule:evenodd;stroke:#000000;stroke-width:1;stroke-linecap:butt;stroke-linejoin:miter;stroke-miterlimit:4;stroke-dasharray:none;stroke-opacity:1"
     d="M 150.19219,18.218991 L 150.19219,415.19471"
     id="path3106" />
  <path
     style="fill:none;fill-opacity:0.75;fill-rule:evenodd;stroke:#000000;stroke-width:1.70000005;stroke-linecap:butt;stroke-linejoin:miter;stroke-miterlimit:4;stroke-dasharray:none;stroke-opacity:1"
     d="M 136.18548,404.99852 C 140.74575,394.53644 149.40456,395.51862 163.11489,397.61688 C 176.33743,401.32098 177.56848,399.92602 178.17177,416.02146 C 174.59723,426.8703 162.96505,431.00651 154.10194,432.72887 C 145.17344,433.8459 141.37257,435.51487 134.46974,427.29453 C 129.90739,420.60522 131.93653,412.20631 136.18548,404.99852 z "
     id="path3983"
     sodipodi:nodetypes="cccccc" />
  <path
     style="fill:none;fill-opacity:0.75;fill-rule:evenodd;stroke:#000000;stroke-width:1.70000005;stroke-linecap:butt;stroke-linejoin:miter;stroke-miterlimit:4;stroke-dasharray:none;stroke-opacity:1"
     d="M 120.17064,399.62617 C 129.91217,385.18549 148.40886,386.54118 177.69649,389.43739 C 205.94211,394.5501 209.52586,393.10167 210.81459,415.318 C 203.17878,430.29251 177.37643,435.52467 158.44327,437.902 C 139.37047,439.44383 131.25115,441.74748 116.50552,430.40106 C 108.24016,416.13841 111.29227,408.90202 120.17064,399.62617 z "
     id="path3985"
     sodipodi:nodetypes="cccccc" />
  <path
     style="fill:none;fill-opacity:0.75;fill-rule:evenodd;stroke:#000000;stroke-width:1.70000005;stroke-linecap:butt;stroke-linejoin:miter;stroke-miterlimit:4;stroke-dasharray:none;stroke-opacity:1"
     d="M 113.8577,395.77848 C 127.62436,377.02196 153.76376,377.8288 195.15284,381.59059 C 216.59078,387.03881 234.5166,385.49192 239.4176,414.34799 C 236.68148,436.65995 194.70052,441.45184 167.94433,444.5397 C 140.99076,446.54233 129.51659,450.48848 108.67817,435.751 C 94.408759,417.76016 100.95933,407.83633 113.8577,395.77848 z "
     id="path3987"
     sodipodi:nodetypes="cccccc" />
  <path
     style="fill:none;fill-opacity:0.75;fill-rule:evenodd;stroke:#000000;stroke-width:1.70000005;stroke-linecap:butt;stroke-linejoin:miter;stroke-miterlimit:4;stroke-dasharray:none;stroke-opacity:1"
     d="M 107.9819,385.61371 C 125.30648,358.75335 158.20154,360.79798 210.2875,366.18508 C 246.9804,373.78695 278.28644,406.68336 263.21326,424.4082 C 244.17005,449.39947 209.71829,452.38669 176.04704,456.80867 C 142.1274,459.67653 127.68777,463.96144 101.46373,442.85654 C 81.66959,411.24243 94.114929,404.28593 107.9819,385.61371 z "
     id="path3989"
     sodipodi:nodetypes="cccccc" />
  <path
     style="fill:none;fill-opacity:0.75;fill-rule:evenodd;stroke:#000000;stroke-width:1.70000005;stroke-linecap:butt;stroke-linejoin:miter;stroke-miterlimit:4;stroke-dasharray:none;stroke-opacity:1"
     d="M 104.30981,375.37633 C 125.1795,339.06654 164.80581,342.4753 227.54998,349.75756 C 264.11385,363.28762 271.77141,360.80732 293.08356,401.8273 C 312.98612,441.42366 228.88806,464.29073 188.32676,470.26835 C 147.46622,474.14512 128.04806,481.28663 96.457859,452.75708 C 74.94634,414.77951 84.640899,404.67639 104.30981,375.37633 z "
     id="path3991"
     sodipodi:nodetypes="cccccc" />
  <path
     style="fill:none;fill-opacity:0.75;fill-rule:evenodd;stroke:#000000;stroke-width:1.70000005;stroke-linecap:butt;stroke-linejoin:miter;stroke-miterlimit:4;stroke-dasharray:none;stroke-opacity:1"
     d="M 101.33286,360.68189 C 182.64891,267.85591 454.27507,394.45851 263.74425,484.03659 C 240.55963,494.93684 227.5325,496.21879 201.03719,496.41078 C 158.17918,492.90972 129.50131,489.89132 92.015509,455.08557 C 67.23969,426.76231 78.25894,391.20043 101.33286,360.68189 z "
     id="path3993"
     sodipodi:nodetypes="csccc" />
  <path
     style="fill:none;fill-opacity:0.75;fill-rule:evenodd;stroke:#000000;stroke-width:1.70000005;stroke-linecap:butt;stroke-linejoin:miter;stroke-miterlimit:4;stroke-dasharray:none;stroke-opacity:1"
     d="M 112.89247,332.74749 C 195.55954,279.79853 358.70486,360.72671 366.00234,411.32346 C 372.59859,457.05828 338.29603,504.91952 289.77748,531.64731 C 237.76963,560.29728 170.09028,529.58956 96.778619,478.30858 C 81.47096,467.2179 78.25467,459.54429 74.98295,449.46009 C 71.67677,439.26968 69.3256,428.78914 69.8508,413.78022 C 70.42756,397.05994 73.28321,385.17733 79.58814,370.5442 C 85.893079,355.91108 100.91124,339.00444 112.89247,332.74749 z "
     id="path3995"
     sodipodi:nodetypes="csscsssc" />
  <path
     style="fill:none;fill-opacity:0.75;fill-rule:evenodd;stroke:#000000;stroke-width:1.70000005;stroke-linecap:butt;stroke-linejoin:miter;stroke-miterlimit:4;stroke-dasharray:none;stroke-opacity:1"
     d="M 102.49679,322.27366 C 131.27135,300.92836 198.76175,284.30567 302.58631,298.72754 C 402.73293,324.23627 429.07618,400.97319 410.84877,442.39849 C 363.66029,520.96345 312.61834,587.19529 231.24606,574.45821 C 167.4724,560.19343 130.25894,562.07067 88.064159,501.27746 C 42.89222,417.12058 72.7973,354.73257 102.49679,322.27366 z "
     id="path3997"
     sodipodi:nodetypes="cccccc" />
  <path
     sodipodi:type="arc"
     style="opacity:1;fill:#060303;fill-opacity:1;fill-rule:nonzero;stroke:#020205;stroke-width:1;stroke-linecap:round;stroke-miterlimit:4;stroke-dasharray:none;stroke-dashoffset:0;stroke-opacity:1"
     id="path4872"
     sodipodi:cx="212.03004"
     sodipodi:cy="491.16229"
     sodipodi:rx="1.6695279"
     sodipodi:ry="1.9080319"
     d="M 211.89319,489.26068 A 1.6695279,1.9080319 0 1 1 211.81394,489.27031"
     sodipodi:start="4.6303252"
     sodipodi:end="10.865769"
     sodipodi:open="true"
     transform="translate(-61.62943,-75.74887)" />
  <path
     sodipodi:type="arc"
     style="opacity:1;fill:none;fill-opacity:1;fill-rule:nonzero;stroke:#051afd;stroke-width:1.875;stroke-linecap:round;stroke-miterlimit:4;stroke-dasharray:none;stroke-dashoffset:0;stroke-opacity:1"
     id="path4874"
     sodipodi:cx="212.6263"
     sodipodi:cy="492.35483"
     sodipodi:rx="0.59625995"
     sodipodi:ry="0"
     d="M 212.57742,492.35483 A 0.59625995,0 0 0 0 212.54912,492.35483"
     sodipodi:start="4.6303252"
     sodipodi:end="4.5825837"
     sodipodi:open="true" />
</svg>
